<?xml version="1.0" encoding="UTF-8"?>
<!DOCTYPE svg PUBLIC "-//W3C//DTD SVG 1.1//EN" "http://www.w3.org/Graphics/SVG/1.1/DTD/svg11.dtd">
<svg xmlns="http://www.w3.org/2000/svg" version="1.1" width="1024px" height="1024px" style="shape-rendering:geometricPrecision; text-rendering:geometricPrecision; image-rendering:optimizeQuality; fill-rule:evenodd; clip-rule:evenodd" xmlns:xlink="http://www.w3.org/1999/xlink">
<g><path style="opacity:1" fill="#fefefe" d="M -0.5,790.5 C -0.5,602.167 -0.5,413.833 -0.5,225.5C 16.3428,161.473 54.6762,114.973 114.5,86C 135.636,77.216 157.636,72.216 180.5,71C 350.167,70.3333 519.833,70.3333 689.5,71C 716.298,72.4914 741.298,79.8247 764.5,93C 778.354,104.548 784.854,119.381 784,137.5C 805.521,116.317 831.354,108.151 861.5,113C 876.343,115.757 889.676,121.757 901.5,131C 936.028,165.194 970.195,199.694 1004,234.5C 1021.44,260.095 1025.44,287.761 1016,317.5C 1011.89,327.263 1006.56,336.263 1000,344.5C 943.486,401.014 886.653,457.847 829.5,515C 851.382,519.217 865.215,532.05 871,553.5C 871.667,625.167 871.667,696.833 871,768.5C 867.191,807.953 852.858,842.953 828,873.5C 790.188,918.822 741.688,942.989 682.5,946C 516.833,946.667 351.167,946.667 185.5,946C 139.509,944.455 99.1754,928.789 64.5,899C 31.1419,869.775 9.4752,833.608 -0.5,790.5 Z"/></g>
<g><path style="opacity:1" fill="#151515" d="M 38.5,805.5 C 38.0998,780.503 37.7665,755.503 37.5,730.5C 34.2889,728.4 31.2889,726.066 28.5,723.5C 28.3333,565.5 28.5,407.5 29,249.5C 34.2257,205.543 53.7257,169.377 87.5,141C 115.787,117.344 148.453,104.677 185.5,103C 351.833,102.333 518.167,102.333 684.5,103C 703.626,104.032 721.959,108.365 739.5,116C 751.834,122.668 754.667,132.168 748,144.5C 737.167,155.333 726.333,166.167 715.5,177C 712.551,178.761 709.384,179.928 706,180.5C 698.288,178.358 690.455,176.858 682.5,176C 517.167,175.333 351.833,175.333 186.5,176C 149.74,180.091 123.573,198.924 108,232.5C 105.058,240.268 103.058,248.268 102,256.5C 101.333,424.833 101.333,593.167 102,761.5C 106.947,789.423 121.114,811.256 144.5,827C 158.884,835.848 174.55,840.514 191.5,841C 353.167,841.667 514.833,841.667 676.5,841C 710.234,839.058 736.067,823.891 754,795.5C 760.815,783.721 764.815,771.055 766,757.5C 766.013,703.109 766.679,648.775 768,594.5C 773.761,586.735 780.261,579.569 787.5,573C 795.803,565.698 803.803,558.031 811.5,550C 820.358,545.411 828.524,546.578 836,553.5C 837,555.5 838,557.5 839,559.5C 839.667,627.167 839.667,694.833 839,762.5C 830.944,827.788 797.11,874.288 737.5,902C 717.961,909.967 697.628,913.967 676.5,914C 514.5,914.667 352.5,914.667 190.5,914C 125.738,910.714 77.5712,880.88 46,824.5C 42.9263,818.359 40.4263,812.026 38.5,805.5 Z"/></g>
<g><path style="opacity:1" fill="#7d0000" d="M 835.5,144.5 C 852.109,142.318 867.109,146.152 880.5,156C 912,187.5 943.5,219 975,250.5C 990.189,269.998 992.523,290.998 982,313.5C 979.667,316.833 977.333,320.167 975,323.5C 956.667,341.833 938.333,360.167 920,378.5C 864.833,323.333 809.667,268.167 754.5,213C 773.833,193.667 793.167,174.333 812.5,155C 819.591,150.035 827.258,146.535 835.5,144.5 Z"/></g>
<g><path style="opacity:1" fill="#7d0000" d="M 345.5,658.5 C 345.333,646.162 345.5,633.829 346,621.5C 382.701,584.965 419.201,548.299 455.5,511.5C 548.132,419.368 640.632,327.035 733,234.5C 788.167,289.667 843.333,344.833 898.5,400C 769.5,529 640.5,658 511.5,787C 456.168,787.5 400.834,787.667 345.5,787.5C 345.5,744.5 345.5,701.5 345.5,658.5 Z"/></g>
<g><path style="opacity:1" fill="#fefefe" d="M 728.5,312.5 C 742.287,312.447 747.787,319.113 745,332.5C 675.5,402 606,471.5 536.5,541C 528.54,544.962 522.04,543.129 517,535.5C 514.554,529.511 515.554,524.177 520,519.5C 589.089,449.91 658.589,380.91 728.5,312.5 Z"/></g>
<g><path style="opacity:1" fill="#151515" d="M 455.5,511.5 C 419.201,548.299 382.701,584.965 346,621.5C 345.5,633.829 345.333,646.162 345.5,658.5C 291.868,605.368 238.368,552.035 185,498.5C 173.71,480.49 173.71,462.49 185,444.5C 209.167,419 234,394.167 259.5,370C 278.6,358.221 297.266,358.887 315.5,372C 362.035,418.701 408.701,465.201 455.5,511.5 Z"/></g>
<g><path style="opacity:1" fill="#fefffe" d="M 466.5,577.5 C 496.763,606.095 526.429,635.429 555.5,665.5C 533.681,687.82 511.681,709.986 489.5,732C 478.172,732.5 466.838,732.667 455.5,732.5C 455.5,714.167 455.5,695.833 455.5,677.5C 437.164,677.667 418.83,677.5 400.5,677C 399.347,666.243 399.18,655.41 400,644.5C 422.368,622.299 444.535,599.965 466.5,577.5 Z"/></g>
<g><path style="opacity:1" fill="#222222" d="M 28.5,723.5 C 31.2889,726.066 34.2889,728.4 37.5,730.5C 37.7665,755.503 38.0998,780.503 38.5,805.5C 34.2907,795.675 31.4573,785.341 30,774.5C 28.6436,757.532 28.1436,740.532 28.5,723.5 Z"/></g>
</svg>
