<svg xmlns="http://www.w3.org/2000/svg" style="shape-rendering:geometricPrecision;text-rendering:geometricPrecision;image-rendering:optimizeQuality;fill-rule:evenodd;clip-rule:evenodd" viewBox="0 0 1024 1024">
  <path fill="#fefefe" d="M0 791V226c16-65 55-111 115-140 21-9 43-14 66-15h509c26 1 51 9 75 22 13 12 20 26 19 45 22-22 47-30 78-25 14 3 28 9 40 18l102 104c17 25 21 53 12 83-4 9-9 18-16 27L830 515c21 4 35 17 41 39v215a195 195 0 0 1-188 178l-497-1c-46-2-87-17-121-47-34-29-56-65-65-108Z" style="opacity:1"/>
  <path fill="#151515" d="m39 806-1-75-9-7V250c5-44 25-81 59-109 28-24 60-36 98-38h499c19 1 37 5 55 13 12 7 15 16 8 29l-32 32-10 4c-8-3-16-4-23-5H187a93 93 0 0 0-85 81v505a93 93 0 0 0 90 80l485-1c33-2 59-17 77-45 7-12 11-25 12-38l2-163c6-8 12-15 20-22l24-23c8-5 17-3 24 4l3 6v203c-8 65-42 111-101 139-20 8-40 12-61 12H191A166 166 0 0 1 39 806Z" style="opacity:1"/>
  <path fill="#7d0000" d="M836 145c16-3 31 1 45 11l94 95c15 19 18 40 7 63l-7 10-55 55-165-166 58-58c7-5 14-8 23-10ZM346 659v-37l110-110 277-277 166 165-387 387-166 1V659Z" style="opacity:1"/>
  <path fill="#fefefe" d="M729 313c13-1 19 6 16 20L537 541c-8 4-15 2-20-5-2-6-1-12 3-16 69-70 139-139 209-207Z" style="opacity:1"/>
  <path fill="#151515" d="M456 512 346 622v37L185 499a47 47 0 0 1 0-54c24-26 49-51 75-75 19-12 37-11 56 2l140 140Z" style="opacity:1"/>
  <path fill="#fefffe" d="M467 578c30 28 59 57 89 88l-66 66-34 1v-55l-55-1c-2-11-2-22-1-32l67-67Z" style="opacity:1"/>
  <path fill="#222" d="m29 724 9 7 1 75c-5-10-8-21-9-31-1-17-2-34-1-51Z" style="opacity:1"/>
</svg>
