<svg xmlns="http://www.w3.org/2000/svg" width="20" height="20" fill-rule="evenodd" image-rendering="optimizeQuality" shape-rendering="geometricPrecision" viewBox="0 0 1024 1024">
  <path fill="#fefefe" d="M0 791V226c16-65 55-111 115-140a198 198 0 0 1 66-15h509c26 1 51 9 75 22 13 12 20 26 19 45 22-22 47-30 78-25 14 3 28 9 40 18l102 104c17 25 21 53 12 83a114 114 0 0 1-16 27L830 515c21 4 35 17 41 39v215a195 195 0 0 1-188 178H186A201 201 0 0 1 0 791z"/>
  <path fill="#151515" d="m39 806-1-75-9-7V250c5-44 25-81 59-109 28-24 60-36 98-38h499c19 1 37 5 55 13 12 7 15 16 8 29l-32 32-10 4c-8-3-16-4-23-5H187a93 93 0 0 0-85 81v505a93 93 0 0 0 90 80h485c33-3 59-18 77-46 7-12 11-25 12-38l2-163c6-8 12-15 20-22a390 390 0 0 0 24-23c8-5 17-3 24 4l3 6v203c-8 65-42 111-101 139-20 8-40 12-61 12H191A166 166 0 0 1 39 806z"/>
  <path fill="#7d0000" d="M836 145c16-3 31 1 45 11l94 95c15 19 18 40 7 63l-7 10-55 55-165-166 58-58c7-5 14-8 23-10zM346 659v-37l110-110 277-277 166 165-387 387-166 1V659z"/>
  <path fill="#fefefe" d="M729 313c13-1 19 6 16 20L537 541c-8 4-15 2-20-5-2-6-1-12 3-16l209-207z"/>
  <path fill="#151515" d="M456 512 346 622v37L185 499a47 47 0 0 1 0-54c24-26 49-51 75-75 19-12 37-11 56 2l140 140z"/>
  <path fill="#fefffe" d="M467 578c30 28 59 57 89 88l-66 66-34 1v-55l-55-1a179 179 0 0 1-1-32l67-67z"/>
  <path fill="#222" d="m29 724 9 7 1 75c-5-10-8-21-9-31a507 507 0 0 1-1-51z"/>
</svg>
