<svg xmlns="http://www.w3.org/2000/svg" width="20" height="20" viewBox="0 0 1024 1024" shape-rendering="geometricPrecision" image-rendering="optimizeQuality" fill-rule="evenodd" xmlns:v="https://vecta.io/nano"><path fill="#fefefe" d="M-.5 790.5v-565c16.843-64.027 55.176-110.527 115-139.5a198.16 198.16 0 0 1 66-15h509c26.798 1.491 51.798 8.825 75 22 13.854 11.548 20.354 26.381 19.5 44.5 21.521-21.183 47.354-29.349 77.5-24.5 14.843 2.757 28.176 8.757 40 18L1004 234.5c17.44 25.595 21.44 53.261 12 83a114.32 114.32 0 0 1-16 27L829.5 515c21.882 4.217 35.715 17.05 41.5 38.5v215c-3.809 39.453-18.142 74.453-43 105-37.812 45.322-86.312 69.489-145.5 72.5h-497c-45.991-1.545-86.325-17.211-121-47-33.358-29.225-55.025-65.392-65-108.5z"/><path fill="#151515" d="M38.5 805.5l-1-75c-3.211-2.1-6.211-4.434-9-7l.5-474c5.226-43.957 24.726-80.123 58.5-108.5 28.287-23.656 60.953-36.323 98-38h499c19.126 1.032 37.459 5.365 55 13 12.334 6.668 15.167 16.168 8.5 28.5L715.5 177c-2.949 1.761-6.116 2.928-9.5 3.5-7.712-2.142-15.545-3.642-23.5-4.5-165.333-.667-330.667-.667-496 0-36.76 4.091-62.927 22.924-78.5 56.5-2.942 7.768-4.942 15.768-6 24v505c4.947 27.923 19.114 49.756 42.5 65.5 14.384 8.848 30.05 13.514 47 14h485c33.734-1.942 59.567-17.109 77.5-45.5 6.815-11.779 10.815-24.445 12-38l2-163c5.761-7.765 12.261-14.931 19.5-21.5a389.69 389.69 0 0 0 24-23c8.858-4.589 17.024-3.422 24.5 3.5l3 6v203c-8.056 65.288-41.89 111.788-101.5 139.5-19.539 7.967-39.872 11.967-61 12h-486c-64.762-3.286-112.929-33.12-144.5-89.5-3.074-6.141-5.574-12.474-7.5-19z"/><path d="M835.5 144.5c16.609-2.182 31.609 1.652 45 11.5l94.5 94.5c15.189 19.498 17.523 40.498 7 63l-7 10-55 55L754.5 213l58-58c7.091-4.965 14.758-8.465 23-10.5zm-490 514c-.167-12.338 0-24.671.5-37l109.5-110 277.5-277L898.5 400l-387 387-166 .5v-129z" fill="#7d0000"/><path fill="#fefefe" d="M728.5 312.5c13.787-.053 19.287 6.613 16.5 20L536.5 541c-7.96 3.962-14.46 2.129-19.5-5.5-2.446-5.989-1.446-11.323 3-16l208.5-207z"/><path fill="#151515" d="M455.5 511.5L346 621.5c-.5 12.329-.667 24.662-.5 37L185 498.5c-11.29-18.01-11.29-36.01 0-54 24.167-25.5 49-50.333 74.5-74.5 19.1-11.779 37.766-11.113 56 2l140 139.5z"/><path fill="#fefffe" d="M466.5 577.5c30.263 28.595 59.929 57.929 89 88l-66 66.5c-11.328.5-22.662.667-34 .5v-55c-18.336.167-36.67 0-55-.5a178.67 178.67 0 0 1-.5-32.5l66.5-67z"/><path fill="#222" d="M28.5 723.5c2.789 2.566 5.789 4.9 9 7l1 75c-4.209-9.825-7.043-20.159-8.5-31a506.61 506.61 0 0 1-1.5-51z"/></svg>